<?xml version="1.0" encoding="utf-8"?>
<!-- Svg Vector Icons : http://www.onlinewebfonts.com/icon -->
<!DOCTYPE svg PUBLIC "-//W3C//DTD SVG 1.1//EN" "http://www.w3.org/Graphics/SVG/1.1/DTD/svg11.dtd">
<svg version="1.1" xmlns="http://www.w3.org/2000/svg" xmlns:xlink="http://www.w3.org/1999/xlink" x="0px" y="0px" viewBox="0 0 1000 1000" enable-background="new 0 0 1000 1000" xml:space="preserve">
<metadata> Svg Vector Icons : http://www.onlinewebfonts.com/icon </metadata>
<g><g transform="translate(0.000000,512.000000) scale(0.100000,-0.100000)"><path d="M4549.1,5024.4c-632.3-65.3-1153.1-213.3-1722-492C1574.1,3921.2,624.7,2775.8,253.7,1420.8C123.1,944.2,100,753.9,100,142.8c0-611.2,19.2-791.8,134.5-1239.6C451.7-1942.4,884.1-2705.4,1503-3328.1c292.1-294.1,465.1-436.3,791.8-655.4c903.3-603.4,2052.6-893.7,3138.4-791.8c834.1,76.9,1600.9,349.8,2296.6,814.9C8858-3207.1,9601.8-2061.6,9847.8-702.8c48,255.6,51.9,320.9,51.9,816.8c1.9,474.7-3.8,567-42.3,786c-98,565-247.9,1010.9-495.9,1491.4c-369,707.3-907.1,1318.4-1583.6,1791.2c-578.5,405.5-1345.3,703.4-2098.7,814.9C5442.8,5032.1,4777.9,5047.4,4549.1,5024.4z M5500.5,4618.8c690-71.1,1389.5-322.9,1989.1-716.9c1095.5-718.8,1818.1-1883.4,2000.7-3221.1c13.5-99.9,25-351.7,25-557.3c0-205.7-11.5-457.4-25-557.3c-263.3-1929.6-1643.2-3442.1-3520.9-3863c-601.6-134.5-1358.8-130.7-1983.4,9.6c-495.9,111.4-1076.3,361.3-1502.9,647.7C1652.9-3086,1016.7-2248,705.4-1302.5C2,834.7,953.3,3144.8,2954,4157.6C3745.8,4559.3,4589.5,4713,5500.5,4618.8z"/><path d="M4818.2,2673.9v-198l-165.3-23.1c-451.6-65.4-916.7-294.1-1266.5-622.7c-357.5-334.4-634.2-862.9-705.3-1349.2L2658,315.8h-198h-198V123.6V-68.6h198h198l23.1-165.3c53.8-359.4,222.9-759.1,455.5-1068.6c357.5-474.7,934-818.7,1516.4-903.3l165.3-23v-198v-197.9h192.2h192.2v197.9v198l169.1,25c468.9,67.3,951.3,313.3,1303,663c349.8,351.7,595.8,834.1,663,1304.9l25,167.2h197.9h197.9v192.2v192.2h-197.9h-197.9L7339.7,481c-84.6,582.3-428.6,1158.9-903.3,1516.4c-309.4,232.5-709.2,401.7-1068.6,455.5l-165.3,23.1v198v197.9h-192.2h-192.2V2673.9z M5538.9,2018.5c676.5-201.8,1160.8-686.1,1368.4-1366.5c48-161.4,51.9-196,51.9-528.5c0-332.5-3.8-367.1-51.9-528.5c-109.6-355.5-274.8-634.2-528.5-878.3c-249.8-240.2-495.8-384.4-839.9-490.1c-161.4-48-196-51.9-528.5-51.9c-332.5,0-367.1,3.8-528.5,51.9c-680.3,207.6-1160.8,686.1-1368.4,1368.4c-48,161.4-51.9,196-51.9,528.5c0,332.5,3.8,367.1,51.9,528.5c196,641.9,665,1135.8,1264.6,1333.8c255.6,84.6,357.5,98,680.3,90.3C5323.7,2070.4,5389,2062.7,5538.9,2018.5z"/><path d="M4712.5,1267.1c-401.7-111.5-738-449.7-845.6-855.2c-38.4-140.3-36.5-434.4,1.9-584.3c101.9-394,451.6-743.8,845.6-845.6c67.3-17.3,196-30.7,296-30.7c100,0,228.7,13.4,296,30.7c394,101.9,743.8,451.6,845.6,845.6c40.4,153.8,40.4,438.2,0,591.9c-101.9,394-451.6,743.8-845.6,845.6C5162.2,1301.7,4847,1303.6,4712.5,1267.1z M5308.3,852c163.4-59.6,370.9-269.1,430.5-430.5c59.6-161.4,71.1-336.3,32.7-488.2c-38.4-149.9-84.6-232.5-201.8-353.6c-224.8-234.5-542-301.7-857.2-184.5c-161.4,59.6-369,267.1-432.4,430.5c-63.4,161.4-65.3,432.4-1.9,591.9c50,126.8,213.3,317.1,336.3,388.2C4806.7,919.2,5083.4,936.5,5308.3,852z"/></g></g>
</svg>